<?xml version="1.0" encoding="utf-8"?>
<!-- Generator: Adobe Illustrator 22.1.0, SVG Export Plug-In . SVG Version: 6.00 Build 0)  -->
<svg version="1.1" id="Layer_1" xmlns="http://www.w3.org/2000/svg" xmlns:xlink="http://www.w3.org/1999/xlink" x="0px" y="0px"
	 viewBox="0 0 70 70" style="enable-background:new 0 0 70 70;" xml:space="preserve">
<style type="text/css">
	.st0{fill:#F0047F;}
	.st1{fill-rule:evenodd;clip-rule:evenodd;fill:#FFFFFF;}
	.st2{fill:#FFFFFF;}
	.st3{fill-rule:evenodd;clip-rule:evenodd;}
	.st4{fill-rule:evenodd;clip-rule:evenodd;fill:#231816;}
	.st5{fill-rule:evenodd;clip-rule:evenodd;fill:#E40413;}
	.st6{fill-rule:evenodd;clip-rule:evenodd;fill:#020202;}
	.st7{fill-rule:evenodd;clip-rule:evenodd;fill:#FEFEFE;}
</style>
<g>
	<circle class="st0" cx="35" cy="35" r="35"/>
</g>
<path class="st1" d="M44.08715,55l2.80835-5.23896l5.94549,0.18715l-7.01806-12.15511l0.05189-0.06451
	c2.00832-2.48968,3.08993-5.56324,3.08993-8.7621c0-3.71652-1.46308-7.24822-4.09082-9.87565
	C42.24635,16.46308,38.7148,15,34.99813,15s-7.24791,1.46276-9.8758,4.09082c-2.62758,2.62743-4.09066,6.15913-4.09066,9.87565
	c0,3.19994,1.08223,6.27429,3.0918,8.76459l0.0522,0.06451l-7.01666,12.15262l5.94518-0.18715L25.91285,55l7.05437-12.21339
	l0.08041,0.01138c0.64622,0.09038,1.29821,0.1351,1.95051,0.1351c0.65355,0,1.30647-0.04488,1.95378-0.13557l0.08041-0.01138
	L44.08715,55L44.08715,55z M24.23582,47.79962l-3.67725,0.11562l4.99774-8.65629l0.11079,0.09958
	c1.49471,1.34278,3.26212,2.35146,5.18131,2.94797l0.14445,0.04457l-5.01722,8.694L24.23582,47.79962L24.23582,47.79962z
	 M45.76418,47.79962l-1.74014,3.24545l-5.018-8.69493l0.14445-0.04472c1.91887-0.59698,3.68628-1.60582,5.18084-2.94875
	l0.11095-0.09958l4.99883,8.65816L45.76418,47.79962L45.76418,47.79962z M43.50747,20.45728
	c2.26403,2.26404,3.52454,5.30706,3.52454,8.50919s-1.2605,6.24562-3.52454,8.5095
	c-2.26404,2.26388-5.30706,3.52454-8.50934,3.52454c-3.20197,0-6.24546-1.26097-8.50934-3.52454
	c-2.26373-2.26388-3.52454-5.30737-3.52454-8.5095s1.26065-6.24515,3.52454-8.50919s5.30737-3.52453,8.50934-3.52453
	C38.20041,16.93274,41.24343,18.19324,43.50747,20.45728L43.50747,20.45728z M34.99813,20.52647
	c2.24596,0,4.38004,0.88402,5.96793,2.47222c1.58821,1.58789,2.47223,3.72181,2.47223,5.96777
	c0,2.24612-0.88402,4.38019-2.47223,5.96793c-1.58789,1.58805-3.72197,2.47207-5.96793,2.47207s-4.37988-0.88386-5.96793-2.47207
	c-1.58821-1.58789-2.47207-3.72181-2.47207-5.96793c0-2.24596,0.88417-4.37988,2.47207-5.96777
	C30.61794,21.41048,32.75217,20.52647,34.99813,20.52647L34.99813,20.52647z M39.5996,24.36515
	c1.22419,1.22435,1.90594,2.8699,1.90594,4.60131c0,1.73157-0.68175,3.37743-1.90594,4.60162
	c-1.22435,1.22372-2.8699,1.90579-4.60147,1.90579c-1.73141,0-3.37712-0.68175-4.60147-1.90579
	c-1.22404-1.22435-1.90578-2.87005-1.90578-4.60162c0-1.73141,0.68191-3.37696,1.90578-4.60131
	c1.22419-1.22419,2.87005-1.90594,4.60147-1.90594C36.7297,22.45921,38.37525,23.14096,39.5996,24.36515z"/>
</svg>
