<?xml version="1.0" encoding="utf-8"?>
<!-- Generator: Adobe Illustrator 22.1.0, SVG Export Plug-In . SVG Version: 6.00 Build 0)  -->
<svg version="1.1" id="Layer_1" xmlns="http://www.w3.org/2000/svg" xmlns:xlink="http://www.w3.org/1999/xlink" x="0px" y="0px"
	 viewBox="0 0 70 70" style="enable-background:new 0 0 70 70;" xml:space="preserve">
<style type="text/css">
	.st0{fill:#F0047F;}
	.st1{fill-rule:evenodd;clip-rule:evenodd;fill:#FFFFFF;}
	.st2{fill:#FFFFFF;}
	.st3{fill-rule:evenodd;clip-rule:evenodd;}
	.st4{fill-rule:evenodd;clip-rule:evenodd;fill:#231816;}
	.st5{fill-rule:evenodd;clip-rule:evenodd;fill:#E40413;}
	.st6{fill-rule:evenodd;clip-rule:evenodd;fill:#020202;}
	.st7{fill-rule:evenodd;clip-rule:evenodd;fill:#FEFEFE;}
</style>
<g>
	<circle class="st0" cx="35" cy="35" r="35"/>
</g>
<path class="st1" d="M15.47304,30.65872c-0.63072,2.84813-0.63072,5.83426,0,8.68256l4.05201,0.33409l0.03173,0.10246
	c0.29473,0.95302,0.67944,1.88107,1.14494,2.76387l0.04993,0.09466l-2.62899,3.10159
	c1.56796,2.45995,3.67944,4.57143,6.13922,6.13922l3.10177-2.62899l0.09466,0.0501c0.88263,0.4655,1.81085,0.85004,2.76387,1.14494
	l0.10246,0.0319l0.33408,4.05184c2.8483,0.63072,5.83443,0.63072,8.68256,0l0.33426-4.05184l0.10229-0.0319
	c0.95319-0.2949,1.88124-0.67944,2.76387-1.14494l0.09466-0.0501l3.10177,2.62899c2.45978-1.56779,4.57143-3.67926,6.13904-6.13922
	l-2.62881-3.10159l0.04993-0.09466c0.46568-0.8828,0.85021-1.81085,1.14511-2.76387l0.03173-0.10246l4.05184-0.33409
	c0.63072-2.8483,0.63072-5.83443,0-8.68256l-4.05184-0.33426l-0.03173-0.10229c-0.2949-0.95319-0.67944-1.88124-1.14511-2.76404
	l-0.04993-0.09449l2.62881-3.10177c-1.56762-2.45978-3.67926-4.57143-6.13904-6.13922l-3.10177,2.62899l-0.09466-0.0501
	c-0.88263-0.46533-1.81068-0.85003-2.76387-1.14494l-0.10229-0.03173l-0.33426-4.05184c-2.84813-0.63072-5.83426-0.63072-8.68256,0
	l-0.33408,4.05184l-0.10246,0.03173c-0.95302,0.2949-1.88124,0.67961-2.76387,1.14494l-0.09466,0.0501l-3.10177-2.62899
	c-2.45978,1.56779-4.57125,3.67944-6.13922,6.13922l2.62899,3.10177l-0.04993,0.09449
	c-0.4655,0.8828-0.85021,1.81085-1.14494,2.76404l-0.03173,0.10229L15.47304,30.65872L15.47304,30.65872z M23.38653,27.15543
	l-2.55548-3.0156l0.07923-0.10159c0.90933-1.1654,1.96273-2.21879,3.12812-3.12795l0.1016-0.0794l3.01543,2.55565
	c1.55947-1.05479,3.33097-1.78884,5.17961-2.14546l0.32507-3.93915l0.12812-0.01595c1.46671-0.18134,2.95683-0.18134,4.42372,0
	l0.12812,0.01595l0.3249,3.93915c1.84865,0.35662,3.62032,1.09067,5.17961,2.14546L45.86,20.83088l0.10177,0.0794
	c1.16539,0.90915,2.21879,1.96255,3.12794,3.12795l0.07923,0.10159l-2.55548,3.0156
	c1.05478,1.55929,1.78866,3.33097,2.14546,5.17961l3.93914,0.3249l0.01595,0.12829c0.18134,1.46671,0.18134,2.95683,0,4.42355
	l-0.01595,0.12812l-3.93914,0.32507c-0.3568,1.84865-1.09068,3.62014-2.14546,5.17961L49.16895,45.86l-0.07923,0.10159
	c-0.90915,1.1654-1.96255,2.2188-3.12794,3.12812L45.86,49.16895l-3.01543-2.55548
	c-1.55929,1.05461-3.33096,1.78866-5.17961,2.14528l-0.3249,3.93932l-0.12812,0.01578c-1.46688,0.18152-2.957,0.18152-4.42372,0
	l-0.12812-0.01578l-0.32507-3.93932c-1.84865-0.35662-3.62014-1.09067-5.17961-2.14528L24.14,49.16895l-0.1016-0.07923
	c-1.16539-0.90932-2.21879-1.96272-3.12812-3.12812L20.83105,45.86l2.55548-3.01543
	c-1.05461-1.55947-1.78866-3.33096-2.14528-5.17961l-3.93932-0.32507l-0.01595-0.12812c-0.18134-1.46671-0.18134-2.95683,0-4.42355
	l0.01595-0.12829l3.93932-0.3249C21.59787,30.48639,22.33192,28.71472,23.38653,27.15543L23.38653,27.15543z M34.99991,25.49835
	c2.52566,0,4.92545,0.99445,6.71099,2.77999c1.78554,1.78572,2.77999,4.18516,2.77999,6.71082
	c0,2.52548-0.99445,4.92545-2.77999,6.71099c-1.78554,1.78537-4.18516,2.77999-6.71099,2.77999
	c-2.52566,0-4.9251-0.99428-6.71082-2.77999c-1.78554-1.78554-2.77999-4.18551-2.77999-6.71099
	c0-2.52566,0.99445-4.92511,2.77999-6.71082C30.07481,26.49281,32.47425,25.49835,34.99991,25.49835L34.99991,25.49835z
	 M40.19097,29.79828c1.38124,1.38089,2.14996,3.23734,2.14996,5.19088c0,1.95353-0.76872,3.81016-2.14996,5.19123
	c-1.38107,1.38107-3.23769,2.14979-5.19106,2.14979c-1.95319,0-3.80981-0.76873-5.19088-2.14979
	c-1.38124-1.38107-2.14997-3.23769-2.14997-5.19123c0-1.95354,0.76872-3.80999,2.14997-5.19088
	c1.38107-1.38107,3.23752-2.14997,5.19088-2.14997C36.95328,27.64832,38.8099,28.41722,40.19097,29.79828z"/>
</svg>
