<?xml version="1.0" encoding="utf-8"?>
<!-- Generator: Adobe Illustrator 22.1.0, SVG Export Plug-In . SVG Version: 6.00 Build 0)  -->
<svg version="1.1" id="Layer_1" xmlns="http://www.w3.org/2000/svg" xmlns:xlink="http://www.w3.org/1999/xlink" x="0px" y="0px"
	 viewBox="0 0 70 70" style="enable-background:new 0 0 70 70;" xml:space="preserve">
<style type="text/css">
	.st0{fill:#F0047F;}
	.st1{fill-rule:evenodd;clip-rule:evenodd;fill:#FFFFFF;}
	.st2{fill:#FFFFFF;}
	.st3{fill-rule:evenodd;clip-rule:evenodd;}
	.st4{fill-rule:evenodd;clip-rule:evenodd;fill:#231816;}
	.st5{fill-rule:evenodd;clip-rule:evenodd;fill:#E40413;}
	.st6{fill-rule:evenodd;clip-rule:evenodd;fill:#020202;}
	.st7{fill-rule:evenodd;clip-rule:evenodd;fill:#FEFEFE;}
</style>
<g>
	<circle class="st0" cx="35" cy="35" r="35"/>
</g>
<path class="st1" d="M16.66105,27.01648v10.09262h2.65777V55h31.36219V37.10909h2.65794V27.01648h-6.15181l1.09291-0.50694
	c1.28457-0.59591,2.55234-1.53864,2.55234-3.08757c0-1.54155-0.8721-3.36872-1.69105-4.64026
	C48.28416,17.45068,46.27973,15,44.52319,15c-3.00356,0-7.40793,5.10674-9.32938,7.14803l-0.19355,0.20572l-0.19355-0.20572
	C32.88507,20.10674,28.48088,15,25.47732,15c-1.75671,0-3.76114,2.45068-4.61832,3.78171
	c-0.81878,1.27154-1.69088,3.09871-1.69088,4.64026c0,1.54927,1.26914,2.492,2.55388,3.08757l1.09325,0.50694H16.66105
	L16.66105,27.01648z M21.44514,52.87385V37.10909h11.42879v15.76476H21.44514L21.44514,52.87385z M37.88895,24.31173
	c0.49408-0.52477,0.97976-1.05742,1.46749-1.58801c0.82444-0.89678,3.92554-4.56877,5.31898-3.99018
	c0.13749,0.05692,0.25407,0.14675,0.34956,0.26024c0.80815,0.96073,3.79268,4.58026,0.99193,4.99034
	c-2.6312,0.38556-5.266,0.6902-7.92584,0.77523l-0.64305,0.02074L37.88895,24.31173L37.88895,24.31173z M51.21263,29.14263v5.84031
	H37.12641v-5.84031H51.21263L51.21263,29.14263z M32.87393,29.14263v5.84031H18.78737v-5.84031H32.87393L32.87393,29.14263z
	 M31.90943,24.75935c-2.66978-0.08503-5.28589-0.3883-7.92584-0.77523c-2.80092-0.41007,0.18361-4.02961,0.99193-4.99034
	c0.09532-0.11349,0.21207-0.20332,0.34939-0.26024c1.39343-0.5786,4.49471,3.09339,5.31915,3.99018
	c0.48774,0.5306,0.97342,1.06325,1.46732,1.58801l0.44093,0.46836L31.90943,24.75935L31.90943,24.75935z M37.12641,52.87385
	V37.10909h11.42845v15.76476H37.12641z"/>
</svg>
