<?xml version="1.0" encoding="utf-8"?>
<!-- Generator: Adobe Illustrator 22.1.0, SVG Export Plug-In . SVG Version: 6.00 Build 0)  -->
<svg version="1.1" id="Layer_1" xmlns="http://www.w3.org/2000/svg" xmlns:xlink="http://www.w3.org/1999/xlink" x="0px" y="0px"
	 viewBox="0 0 70 70" style="enable-background:new 0 0 70 70;" xml:space="preserve">
<style type="text/css">
	.st0{fill:#F0047F;}
	.st1{fill-rule:evenodd;clip-rule:evenodd;fill:#FFFFFF;}
	.st2{fill:#FFFFFF;}
	.st3{fill-rule:evenodd;clip-rule:evenodd;}
	.st4{fill-rule:evenodd;clip-rule:evenodd;fill:#231816;}
	.st5{fill-rule:evenodd;clip-rule:evenodd;fill:#E40413;}
	.st6{fill-rule:evenodd;clip-rule:evenodd;fill:#020202;}
	.st7{fill-rule:evenodd;clip-rule:evenodd;fill:#FEFEFE;}
</style>
<g>
	<circle class="st0" cx="35" cy="35" r="35"/>
</g>
<path class="st1" d="M27.73074,31.18065l1.96572-0.51686c-0.12703-0.49106-0.2309-0.9859-0.2968-1.48896
	c-0.07067-0.53971-0.09433-1.08319-0.09433-1.62684c0-1.66973,0.43682-3.44909,1.58658-4.70977
	c1.07103-1.17457,2.55292-1.63572,4.1109-1.63572c1.63128,0,3.1181,0.63223,4.19669,1.85741
	c1.19642,1.3588,1.69093,3.18581,1.69093,4.96812c0,2.06498-0.7149,3.88032-1.99004,5.4812
	c-1.33135,1.67089-3.16444,2.99599-5.00559,4.06094l1.01072,1.76735c2.07205-1.19774,4.08838-2.68225,5.58671-4.56301
	c1.57047-1.97131,2.43656-4.20343,2.43656-6.74648c0-2.28438-0.67266-4.57747-2.20057-6.31344
	c-1.4763-1.67664-3.49757-2.55029-5.72541-2.55029c-2.15849,0-4.14097,0.68811-5.61563,2.30525
	c-1.49717,1.64179-2.12004,3.89248-2.12004,6.07842c0,0.6342,0.03681,1.26068,0.11915,1.8893
	C27.46352,30.02679,27.58217,30.60561,27.73074,31.18065L27.73074,31.18065z M18.78468,55v-8.38384
	c0-2.48537,0.88762-4.57435,2.63723-6.31837c1.74911-1.74352,4.14311-2.89919,6.44557-3.7173l0.88188-0.31324l0.38324,0.8587
	c0.93151,2.08585,1.96079,4.13851,3.13404,6.09946c0.80019,1.3371,1.67106,2.6369,2.63295,3.8634l0.10025,0.1277l0.10009-0.1277
	c0.96207-1.22683,1.83342-2.52629,2.63345-3.8634c1.17342-1.96095,2.20237-4.01377,3.1342-6.09946l0.38342-0.8587l0.88153,0.31324
	c2.30246,0.81811,4.69646,1.97377,6.44557,3.7173c1.74977,1.74402,2.63723,3.83299,2.63723,6.31837V55H18.78468L18.78468,55z
	 M35.00033,50.36386l0.76749-0.89025c1.39183-1.61369,2.61488-3.37842,3.70827-5.20609
	c1.03125-1.72282,1.95371-3.51269,2.79893-5.33362l0.05095-0.10929l0.11208,0.0447c1.67828,0.67282,3.41623,1.58181,4.7078,2.86895
	c1.34877,1.34433,2.03129,2.96296,2.03129,4.87789v6.34549H20.82304v-6.34549c0-1.9151,0.68284-3.53356,2.03145-4.87789
	c1.29141-1.28714,3.02919-2.19613,4.70747-2.86895l0.11225-0.0447l0.05095,0.10929c0.84507,1.82093,1.76801,3.6108,2.79878,5.33362
	c1.09355,1.82767,2.3161,3.59256,3.70842,5.20609L35.00033,50.36386L35.00033,50.36386z M31.82077,34.79079
	c-0.16088,0.05243-0.32523,0.10091-0.49237,0.14528c-0.93298,0.2475-1.96161,0.37503-2.90954,0.37503
	c-1.19314,0-2.32004-0.3632-3.1909-1.10883c-0.62977-0.53971-1.11458-1.26808-1.38097-2.18939
	c-1.04162-0.14117-1.83491-0.56748-2.41784-1.16553c-0.85147-0.87332-1.20283-2.07862-1.20283-3.2739
	c0-1.16372,0.38029-2.56705,1.29832-3.58599c0.61892-0.68712,1.46381-1.1979,2.57231-1.35173
	c0.75303-2.20188,2.07123-4.08789,3.88476-5.4383C29.84239,15.81252,32.20961,15,35.00394,15
	c2.7475,0,5.08398,0.78754,6.93318,2.13368c1.79907,1.30982,3.1199,3.14193,3.8961,5.28695
	c1.13611,0.14988,2.10722,0.66379,2.83608,1.42733c0.88466,0.92641,1.39709,2.21256,1.39709,3.64778
	c0,1.23209-0.4503,2.4129-1.34845,3.26239C47.92647,31.5067,46.81009,31.981,45.3798,31.981v-1.91083
	c0.90882,0,1.58379-0.26903,2.03211-0.69304c0.49533-0.46838,0.74349-1.1509,0.74349-1.88141
	c0-0.93676-0.31784-1.75914-0.86708-2.33401c-0.51966-0.54447-1.26397-0.87546-2.15472-0.87546h-0.70388l-0.20675-0.67923
	c-0.6158-2.0262-1.77573-3.74901-3.40537-4.93558c-1.52593-1.11064-3.48293-1.76062-5.81367-1.76062
	c-2.36621,0-4.34903,0.67167-5.88746,1.81699c-1.6408,1.22157-2.79549,2.99402-3.38631,5.0728l-0.1982,0.69781h-0.72016
	c-0.85442,0-1.46117,0.31258-1.86908,0.76568c-0.56945,0.63207-0.80561,1.54171-0.80561,2.30936
	c0,0.74415,0.19245,1.46792,0.6582,1.9455c0.37553,0.38539,0.96619,0.63387,1.83211,0.63387h0.82731l0.11685,0.82123
	c0.11389,0.80085,0.44061,1.39018,0.89567,1.78001c0.50749,0.43436,1.19823,0.64604,1.95159,0.64604
	c0.80101,0,1.65905-0.10469,2.4244-0.30765l0.13986-0.03862c0.03665-1.11508,0.95188-2.00812,2.07599-2.00812
	c1.14696,0,2.07731,0.92986,2.07731,2.07731c0,1.14729-0.93035,2.07731-2.07731,2.07731
	C32.59515,35.20034,32.16687,35.04815,31.82077,34.79079z"/>
</svg>
