<?xml version="1.0" encoding="utf-8"?>
<!-- Generator: Adobe Illustrator 22.1.0, SVG Export Plug-In . SVG Version: 6.00 Build 0)  -->
<svg version="1.1" id="Layer_1" xmlns="http://www.w3.org/2000/svg" xmlns:xlink="http://www.w3.org/1999/xlink" x="0px" y="0px"
	 viewBox="0 0 70 70" style="enable-background:new 0 0 70 70;" xml:space="preserve">
<style type="text/css">
	.st0{fill:#F0047F;}
	.st1{fill-rule:evenodd;clip-rule:evenodd;fill:#FFFFFF;}
	.st2{fill:#FFFFFF;}
	.st3{fill-rule:evenodd;clip-rule:evenodd;}
	.st4{fill-rule:evenodd;clip-rule:evenodd;fill:#231816;}
	.st5{fill-rule:evenodd;clip-rule:evenodd;fill:#E40413;}
	.st6{fill-rule:evenodd;clip-rule:evenodd;fill:#020202;}
	.st7{fill-rule:evenodd;clip-rule:evenodd;fill:#FEFEFE;}
</style>
<g>
	<circle class="st0" cx="35" cy="35" r="35"/>
</g>
<g>
	<path class="st2" d="M32.40374,37.10014c0,3.82286-0.71526,6.70522-2.14579,8.64709
		c-1.43053,1.94186-3.60676,2.9128-6.52869,2.9128c-2.87323,0-5.03728-0.94659-6.49216-2.83975S15.03652,41.12388,15,37.41059
		v-4.60204c0-3.82286,0.71526-6.69,2.14579-8.60143s3.61284-2.86714,6.54695-2.86714c2.90975,0,5.0799,0.93136,6.51042,2.79409
		s2.16405,4.65074,2.20058,8.36402V37.10014z M27.96606,32.13286c0-2.49582-0.34089-4.32507-1.02267-5.48775
		s-1.76533-1.74403-3.25065-1.74403c-1.44879,0-2.51408,0.55091-3.19586,1.65272s-1.04094,2.82149-1.07746,5.15903v6.02648
		c0,2.48364,0.34698,4.3342,1.04094,5.55167c0.69396,1.21747,1.78359,1.82621,3.26891,1.82621
		c1.42444,0,2.47755-0.56308,3.15934-1.68924s1.04094-2.88845,1.07746-5.28687V32.13286z"/>
	<path class="st2" d="M35.74448,31.11383c0-1.28565,0.41394-2.33998,1.24182-3.16299
		c0.82788-0.82301,1.91386-1.23451,3.25795-1.23451c1.36357,0,2.45686,0.4115,3.27987,1.23451
		c0.82301,0.82301,1.23452,1.90169,1.23452,3.23604v1.0519c0,1.27591-0.41151,2.32293-1.23452,3.14108
		c-0.82301,0.81814-1.90656,1.22721-3.25064,1.22721c-1.31487,0-2.39842-0.40176-3.25065-1.2053
		c-0.85223-0.80353-1.27834-1.88708-1.27834-3.25064V31.11383z M38.22812,32.23269c0,0.67387,0.18749,1.21869,0.56247,1.63324
		c0.37498,0.41516,0.86927,0.62274,1.48288,0.62274c0.60386,0,1.09085-0.20758,1.46096-0.62274
		c0.37011-0.41455,0.55516-0.97884,0.55516-1.69167v-1.06894c0-0.67387-0.18749-1.22051-0.56247-1.64054
		s-0.86927-0.63004-1.48288-0.63004s-1.10303,0.21245-1.46827,0.63735c-0.36524,0.42429-0.54786,0.98372-0.54786,1.67706V32.23269z
		 M41.00396,46.70233l-1.82621-1.0519l10.38746-16.62578l1.82621,1.05189L41.00396,46.70233z M45.97124,43.07914
		c0-1.30513,0.42368-2.36189,1.27104-3.1703c0.84736-0.8084,1.92847-1.2126,3.24334-1.2126c1.32461,0,2.40816,0.4042,3.25065,1.2126
		C54.57875,40.71724,55,41.8081,55,43.1814v1.03728c0,1.26617-0.40664,2.31076-1.21991,3.13377s-1.90169,1.23451-3.26525,1.23451
		s-2.46173-0.40664-3.29448-1.2199c-0.83275-0.81327-1.24913-1.88708-1.24913-3.22143V43.07914z M48.45488,44.20408
		c0,0.6623,0.19236,1.2053,0.57708,1.62897s0.87901,0.63552,1.48288,0.63552c0.62334,0,1.11277-0.2021,1.46827-0.6063
		c0.3555-0.4042,0.53325-0.97154,0.53325-1.70203v-1.09572c0-0.68178-0.18993-1.22721-0.56978-1.63628
		c-0.37985-0.40907-0.86684-0.61361-1.46096-0.61361c-0.60387,0-1.09329,0.20454-1.46827,0.61361s-0.56247,0.97398-0.56247,1.69472
		V44.20408z"/>
</g>
</svg>
