<?xml version="1.0" encoding="utf-8"?>
<!-- Generator: Adobe Illustrator 22.1.0, SVG Export Plug-In . SVG Version: 6.00 Build 0)  -->
<svg version="1.1" id="Layer_1" xmlns="http://www.w3.org/2000/svg" xmlns:xlink="http://www.w3.org/1999/xlink" x="0px" y="0px"
	 viewBox="0 0 70 70" style="enable-background:new 0 0 70 70;" xml:space="preserve">
<style type="text/css">
	.st0{fill:#F0047F;}
	.st1{fill-rule:evenodd;clip-rule:evenodd;fill:#FFFFFF;}
	.st2{fill:#FFFFFF;}
	.st3{fill-rule:evenodd;clip-rule:evenodd;}
	.st4{fill-rule:evenodd;clip-rule:evenodd;fill:#231816;}
	.st5{fill-rule:evenodd;clip-rule:evenodd;fill:#E40413;}
	.st6{fill-rule:evenodd;clip-rule:evenodd;fill:#020202;}
	.st7{fill-rule:evenodd;clip-rule:evenodd;fill:#FEFEFE;}
</style>
<g>
	<circle class="st0" cx="35" cy="35" r="35"/>
</g>
<path class="st1" d="M18.38534,47.51761c0.23134,1.01025,0.74492,1.93351,1.47763,2.66623
	c1.03867,1.03849,2.43402,1.61675,3.90293,1.61675c1.46892,0,2.86444-0.57826,3.90293-1.61675
	c0.71981-0.71981,1.22904-1.62442,1.46544-2.61462l0.04968-0.20728h11.05122l0.04969,0.20728
	c0.23657,0.9902,0.74561,1.89481,1.46543,2.61462c1.03849,1.03849,2.43402,1.61675,3.90294,1.61675
	c1.46891,0,2.86444-0.57826,3.90293-1.61675c0.72016-0.72017,1.22869-1.6246,1.46544-2.61515l0.04898-0.20379l0.20955-0.00349
	c0.9834-0.01621,1.91468-0.41404,2.60991-1.10927C54.60148,45.54086,55,44.58466,55,43.57806v-6.62459
	c0-0.75154-0.11977-1.48426-0.37324-2.19187c-0.25348-0.70639-0.63161-1.34706-1.10806-1.92619l-9.28437-11.28238
	c-0.86695-1.05366-1.92253-1.91224-3.15889-2.49608c-1.23636-0.58349-2.5679-0.85754-3.93327-0.85754h-18.3585
	c-1.00641,0-1.96262,0.3987-2.67407,1.10997C15.39852,20.02048,15,20.97704,15,21.98311v21.59496
	c0,1.0052,0.39957,1.95897,1.10962,2.66884l0.00523,0.00523c0.55734,0.55734,1.27314,0.92971,2.05136,1.05924l0.1787,0.02946
	L18.38534,47.51761L18.38534,47.51761z M40.74387,21.32257c0.69942,0.42206,1.3094,0.96719,1.82769,1.5974l9.06349,11.01409H41.956
	c-0.43251,0-0.84515-0.1705-1.15094-0.47628c-0.30403-0.30368-0.47122-0.71528-0.47122-1.14483V21.07536L40.74387,21.32257
	L40.74387,21.32257z M52.80029,36.33303c0.02597,0.20554,0.03748,0.41316,0.03748,0.62045v6.62459
	c0,0.43112-0.17172,0.8408-0.47645,1.14553c-0.28399,0.28433-0.66211,0.45378-1.06377,0.47401l-0.22489,0.01133l-0.06293-0.26463
	l-0.05003-0.18671l-0.04096-0.13789l-0.04551-0.13703l-0.06555-0.18061l-0.0162-0.04201l-0.05492-0.13354l-0.06171-0.13982
	l-0.07705-0.16161l-0.04271-0.08403l-0.07897-0.14644l-0.08281-0.14347l-0.08751-0.14173l-0.09031-0.13615l-0.10843-0.15324
	l-0.11349-0.14975l-0.08891-0.11l-0.0903-0.10617l-0.09467-0.10547l-0.1297-0.13667l-0.03451-0.03504
	c-1.03449-1.04233-2.43472-1.61588-3.90224-1.61588s-2.86775,0.57355-3.90224,1.61588l-0.09919,0.10146l-0.09484,0.10268
	l-0.12378,0.14138l-0.08891,0.10861l-0.08751,0.11227l-0.0835,0.11262l-0.10791,0.15481l-0.10216,0.15847l-0.09745,0.16265
	l-0.06903,0.1236l-0.06589,0.12535l-0.08316,0.17102l-0.05875,0.13057l-0.05508,0.13092l-0.04132,0.10582l-0.04655,0.12604
	l-0.04341,0.12883l-0.04271,0.13755l-0.03905,0.13772l-0.03609,0.14313l-0.04951,0.20728H29.18395l-0.07287-0.30124
	l-0.03731-0.13824l-0.04184-0.13894l-0.06084-0.18183l-0.0495-0.13458l-0.053-0.13267l-0.04288-0.10024l-0.05457-0.12151
	l-0.06032-0.125l-0.06485-0.12622l-0.06816-0.12447l-0.0713-0.12255l-0.10007-0.16091l-0.1046-0.15672l-0.11192-0.15481
	l-0.12273-0.15794l-0.08298-0.10094l-0.08873-0.10268l-0.13301-0.14435l-0.09431-0.09693
	c-1.03449-1.04233-2.43472-1.61588-3.90224-1.61588c-1.46717,0-2.86775,0.5732-3.90224,1.61588l-0.09327,0.09588l-0.15149,0.16526
	l-0.11663,0.13685l-0.08385,0.10477l-0.11419,0.15045l-0.12378,0.17712l-0.07322,0.11192l-0.0713,0.11488l-0.09083,0.15655
	l-0.06468,0.11889l-0.06154,0.12046l-0.09641,0.20519l-0.07148,0.16701l-0.04934,0.12587l-0.06537,0.18252l-0.04148,0.12691
	L18.43241,44.854l-0.08595,0.32147l-0.29706-0.1501c-0.15272-0.07723-0.29288-0.17834-0.41369-0.29967
	c-0.30438-0.30508-0.47366-0.71667-0.47366-1.14762V21.98311c0-0.43077,0.17189-0.84063,0.47627-1.14501
	c0.30473-0.30456,0.71441-0.47662,1.14536-0.47662h18.3585c0.26272,0,0.52509,0.01255,0.78641,0.03905l0.24303,0.02458v11.88784
	c0,1.00729,0.40374,1.96245,1.11519,2.67355c0.71022,0.70971,1.66399,1.10979,2.66919,1.10979h10.81483L52.80029,36.33303
	L52.80029,36.33303z M45.65322,42.92328c0.89328,0,1.74297,0.35162,2.37422,0.98323
	c0.63178,0.63126,0.98341,1.48095,0.98341,2.37439c0,0.8931-0.35163,1.74279-0.98341,2.37422
	c-0.63125,0.6316-1.48094,0.98323-2.37422,0.98323c-0.89328,0-1.74297-0.35163-2.37422-0.98323
	c-0.63177-0.63143-0.9834-1.48112-0.9834-2.37422c0-0.89345,0.35163-1.74314,0.9834-2.37439
	C43.91026,43.2749,44.75994,42.92328,45.65322,42.92328L45.65322,42.92328z M23.76591,42.92328
	c0.89328,0,1.74297,0.35162,2.3744,0.98323c0.6316,0.63126,0.98323,1.48095,0.98323,2.37439
	c0,0.8931-0.35163,1.74279-0.98323,2.37422c-0.63143,0.6316-1.48111,0.98323-2.3744,0.98323
	c-0.89327,0-1.74297-0.35163-2.37422-0.98323c-0.63178-0.63143-0.9834-1.48112-0.9834-2.37422
	c0-0.89345,0.35163-1.74314,0.9834-2.37439C22.02294,43.2749,22.87263,42.92328,23.76591,42.92328z"/>
</svg>
