<?xml version="1.0" encoding="utf-8"?>
<!-- Generator: Adobe Illustrator 22.1.0, SVG Export Plug-In . SVG Version: 6.00 Build 0)  -->
<svg version="1.1" id="Layer_1" xmlns="http://www.w3.org/2000/svg" xmlns:xlink="http://www.w3.org/1999/xlink" x="0px" y="0px"
	 viewBox="0 0 70 70" style="enable-background:new 0 0 70 70;" xml:space="preserve">
<style type="text/css">
	.st0{fill:#F0047F;}
	.st1{fill-rule:evenodd;clip-rule:evenodd;fill:#FFFFFF;}
	.st2{fill:#FFFFFF;}
	.st3{fill-rule:evenodd;clip-rule:evenodd;}
	.st4{fill-rule:evenodd;clip-rule:evenodd;fill:#231816;}
	.st5{fill-rule:evenodd;clip-rule:evenodd;fill:#E40413;}
	.st6{fill-rule:evenodd;clip-rule:evenodd;fill:#020202;}
	.st7{fill-rule:evenodd;clip-rule:evenodd;fill:#FEFEFE;}
</style>
<g>
	<circle class="st0" cx="35" cy="35" r="35"/>
</g>
<path class="st1" d="M23.56685,43.81665l-1.68186-1.68148c-0.46311,0.28388-0.93054,0.53188-1.41977,0.77705
	c-1.03124,0.51703-1.70816,0.92191-2.54927,1.75739c-1.85057,1.83704-1.73803,4.92552-1.8331,7.35173l-0.01146,0.2991
	l-0.0047-0.00019L16,53.99948l1.67903-0.0667l-0.00019-0.0047l0.2991-0.01165c2.42621-0.09507,5.51488,0.01747,7.35192-1.83291
	c0.83529-0.84111,1.24016-1.51822,1.7572-2.54927c0.24518-0.48923,0.49336-0.95685,0.77705-1.41996l-1.68148-1.68167
	c-0.43737,0.66902-0.8026,1.33541-1.16595,2.05948c-0.38759,0.77273-0.69965,1.32095-1.32452,1.95052
	c-1.05943,1.06713-3.55177,1.06638-4.95783,1.12556l-0.31657,0.01353l0.01334-0.31676
	c0.05918-1.40587,0.05862-3.89822,1.12556-4.95765c0.62976-0.62506,1.17798-0.93694,1.95052-1.32471
	C22.23144,44.61945,22.89783,44.25422,23.56685,43.81665L23.56685,43.81665z M49.22569,26.93515
	c-1.80285,3.39828-4.42371,6.33064-7.40754,8.7546l-11.36851,8.519l-4.6578-4.65799l8.52596-11.37752
	c2.4172-2.97462,5.34955-5.59567,8.74784-7.39833c2.56599-1.36153,5.35989-2.23008,8.26593-2.41476l0.32991-0.02085
	l-0.02085,0.33028C51.45557,21.57526,50.58703,24.36915,49.22569,26.93515L49.22569,26.93515z M26.3179,34.87681l0.12343-0.16928
	c0.83623-1.14397,1.67415-2.28719,2.5226-3.42233l0.33686-0.45053l-5.46021-0.14523L21.5083,33.3507L26.3179,34.87681
	L26.3179,34.87681z M39.16517,40.70037l-0.45071,0.33705c-1.13477,0.84844-2.27742,1.68674-3.42177,2.52241l-0.16927,0.12381
	l1.52573,4.80791l2.66125-2.33209L39.16517,40.70037L39.16517,40.70037z M53.9778,16.02318l0.01916,1.11804
	c0.06576,3.81123-0.93843,7.52402-2.71893,10.88041c-1.95822,3.69118-4.7925,6.87585-8.0279,9.49764
	c-0.56005,0.45391-1.12387,0.90443-1.69199,1.34857l-0.11555,0.09056l0.21869,8.23061l-6.15197,5.39145l-2.36478-7.45281
	l-0.32709,0.23954c-0.86629,0.63464-1.7307,1.27135-2.5908,1.91388l-7.50711-7.50711
	c0.64272-0.86028,1.27981-1.72488,1.91426-2.59117l0.23935-0.32709l-7.45375-2.36535l5.39088-6.15197l8.23306,0.21887
	l0.09056-0.11573c0.44395-0.56795,0.89372-1.1312,1.34744-1.69106c2.6218-3.2354,5.80647-6.06968,9.49765-8.0279
	c3.35638-1.78049,7.06898-2.78562,10.88021-2.71893L53.9778,16.02318z"/>
</svg>
